<?xml version="1.0" encoding="utf-8"?>
<!-- Generator: Adobe Illustrator 24.1.2, SVG Export Plug-In . SVG Version: 6.00 Build 0)  -->
<svg version="1.1" id="Layer_1" xmlns="http://www.w3.org/2000/svg" xmlns:xlink="http://www.w3.org/1999/xlink" x="0px" y="0px"
	 viewBox="0 0 125 125" style="enable-background:new 0 0 125 125;" xml:space="preserve">
<style type="text/css">
	.st0{fill:#FFFFFF;}
</style>
<g>
	<path d="M31.53,71.32c-4.11,0-7.44,3.33-7.44,7.44v26.29c0,4.11,3.33,7.44,7.44,7.44s7.44-3.33,7.44-7.44V78.77
		C38.97,74.65,35.64,71.32,31.53,71.32z"/>
	<path d="M52.18,53.01c-4.11,0-7.44,3.33-7.44,7.44v44.6c0,4.11,3.33,7.44,7.44,7.44s7.44-3.33,7.44-7.44v-44.6
		C59.62,56.34,56.29,53.01,52.18,53.01z"/>
	<path d="M72.82,33.68c-4.11,0-7.44,3.33-7.44,7.44v63.93c0,4.11,3.33,7.44,7.44,7.44s7.44-3.33,7.44-7.44V41.13
		C80.27,37.02,76.94,33.68,72.82,33.68z"/>
	<path d="M93.47,12.5c-4.11,0-7.44,3.33-7.44,7.44v85.11c0,4.11,3.33,7.44,7.44,7.44s7.44-3.33,7.44-7.44V19.94
		C100.92,15.83,97.58,12.5,93.47,12.5z"/>
</g>
</svg>
