<?xml version="1.0" encoding="utf-8"?>
<!-- Generator: Adobe Illustrator 24.1.2, SVG Export Plug-In . SVG Version: 6.00 Build 0)  -->
<svg version="1.1" id="Layer_1" xmlns="http://www.w3.org/2000/svg" xmlns:xlink="http://www.w3.org/1999/xlink" x="0px" y="0px"
	 viewBox="0 0 125 125" style="enable-background:new 0 0 125 125;" xml:space="preserve">
<style type="text/css">
	.st0{fill:#FFFFFF;}
</style>
<g>
	<path d="M102.12,24.04h-3.75h-1.13h-1.94c0-1.92,0.05-3.58-0.01-5.25c-0.1-3.07-2.2-5.28-5.04-5.4c-2.71-0.11-5.19,2.06-5.49,5.02
		c-0.18,1.75-0.03,3.54-0.03,5.46c-14.84,0-29.39,0-44.42,0c0-1.53,0.06-3.08-0.01-4.63c-0.16-3.52-2.53-6-5.56-5.86
		c-3.02,0.14-4.98,2.45-5.03,5.97c-0.02,1.4,0,2.81,0,4.67h-1.24h-2.43h-3.15c-5.73,0-10.38,4.65-10.38,10.38v66.81
		c0,5.73,4.65,10.38,10.38,10.38h0.06c26.37,0,52.75,0,79.12,0h0.05c5.73,0,10.38-4.65,10.38-10.38V34.42
		C112.5,28.69,107.85,24.04,102.12,24.04z M101.9,96.08c-0.01,3.73-1.19,4.84-4.95,4.84c-22.98,0.01-45.95,0.01-68.93,0
		c-3.53,0-4.9-1.1-4.91-4.3c-0.05-16.66-0.01-33.33,0-49.99c0-0.26,0.12-0.53,0.23-0.96c26.05,0,52.09,0,78.45,0
		c0.05,0.73,0.12,1.28,0.12,1.83C101.91,63.69,101.93,79.89,101.9,96.08z"/>
	<rect x="33.69" y="57.53" width="11.66" height="10.15"/>
	<rect x="56.67" y="57.53" width="11.66" height="10.15"/>
	<rect x="79.8" y="57.53" width="11.66" height="10.15"/>
	<rect x="33.69" y="79.16" width="11.66" height="10.15"/>
	<rect x="56.67" y="79.16" width="11.66" height="10.15"/>
	<rect x="79.8" y="79.16" width="11.66" height="10.15"/>
</g>
</svg>
