<?xml version="1.0" encoding="utf-8"?>
<!-- Generator: Adobe Illustrator 24.1.2, SVG Export Plug-In . SVG Version: 6.00 Build 0)  -->
<svg version="1.1" id="Layer_1" xmlns="http://www.w3.org/2000/svg" xmlns:xlink="http://www.w3.org/1999/xlink" x="0px" y="0px"
	 viewBox="0 0 125 125" style="enable-background:new 0 0 125 125;" xml:space="preserve">
<style type="text/css">
	.st0{fill:#FFFFFF;}
</style>
<g>
	<path d="M102.01,63.66c0-0.1-0.01-0.21-0.02-0.31c-0.01-0.1-0.03-0.2-0.04-0.29c-0.02-0.11-0.03-0.21-0.05-0.32
		c-0.02-0.1-0.05-0.19-0.07-0.29c-0.03-0.11-0.05-0.21-0.08-0.32c-0.03-0.1-0.07-0.19-0.1-0.28c-0.04-0.1-0.07-0.21-0.11-0.31
		c-0.04-0.09-0.08-0.18-0.13-0.28c-0.05-0.1-0.09-0.2-0.14-0.3c-0.05-0.09-0.1-0.18-0.16-0.27c-0.06-0.09-0.11-0.19-0.17-0.28
		c-0.06-0.09-0.13-0.17-0.19-0.26c-0.06-0.09-0.12-0.17-0.19-0.26c-0.07-0.09-0.15-0.17-0.23-0.25c-0.07-0.08-0.14-0.16-0.21-0.23
		L65.86,25.07c-2.51-2.52-6.59-2.52-9.1-0.01c-2.52,2.51-2.52,6.59-0.01,9.1l29.74,29.81L56.75,93.77c-2.51,2.52-2.51,6.59,0.01,9.1
		c1.26,1.25,2.9,1.88,4.55,1.88c1.65,0,3.3-0.63,4.56-1.89l34.28-34.35c0.08-0.08,0.14-0.16,0.21-0.23
		c0.08-0.08,0.15-0.16,0.23-0.25c0.07-0.08,0.13-0.17,0.19-0.26c0.06-0.09,0.13-0.17,0.19-0.26c0.06-0.09,0.11-0.19,0.17-0.28
		c0.05-0.09,0.11-0.17,0.16-0.27c0.05-0.1,0.09-0.2,0.14-0.3c0.04-0.09,0.09-0.18,0.13-0.28c0.04-0.1,0.07-0.2,0.11-0.31
		c0.03-0.09,0.07-0.19,0.1-0.28c0.03-0.1,0.05-0.21,0.08-0.32c0.02-0.1,0.05-0.19,0.07-0.29c0.02-0.11,0.03-0.21,0.05-0.32
		c0.01-0.1,0.03-0.19,0.04-0.29c0.01-0.1,0.01-0.21,0.02-0.31c0-0.1,0.01-0.2,0.01-0.3C102.02,63.86,102.01,63.76,102.01,63.66z"/>
	<path d="M68.47,68.28c0.08-0.08,0.15-0.16,0.23-0.25c0.07-0.08,0.13-0.17,0.19-0.26c0.06-0.09,0.13-0.17,0.19-0.26
		c0.06-0.09,0.11-0.19,0.17-0.28c0.05-0.09,0.11-0.17,0.16-0.27c0.05-0.1,0.09-0.2,0.14-0.3c0.04-0.09,0.09-0.18,0.13-0.28
		c0.04-0.1,0.07-0.2,0.11-0.31c0.03-0.09,0.07-0.19,0.1-0.28c0.03-0.1,0.05-0.21,0.08-0.32c0.02-0.1,0.05-0.19,0.07-0.29
		c0.02-0.11,0.03-0.21,0.05-0.32c0.01-0.1,0.03-0.19,0.04-0.29c0.01-0.1,0.01-0.21,0.02-0.31c0-0.1,0.01-0.2,0.01-0.3
		c0-0.1-0.01-0.2-0.01-0.3c0-0.1-0.01-0.21-0.02-0.31c-0.01-0.1-0.03-0.2-0.04-0.29c-0.02-0.11-0.03-0.21-0.05-0.32
		c-0.02-0.1-0.05-0.19-0.07-0.29c-0.03-0.11-0.05-0.21-0.08-0.32c-0.03-0.1-0.07-0.19-0.1-0.28c-0.04-0.1-0.07-0.21-0.11-0.31
		c-0.04-0.09-0.09-0.18-0.13-0.28c-0.05-0.1-0.09-0.2-0.14-0.3c-0.05-0.09-0.1-0.18-0.16-0.27c-0.06-0.09-0.11-0.19-0.17-0.28
		c-0.06-0.09-0.13-0.17-0.19-0.26c-0.06-0.09-0.12-0.17-0.19-0.26c-0.07-0.09-0.15-0.17-0.23-0.25c-0.07-0.08-0.14-0.16-0.21-0.23
		L33.97,25.07c-2.51-2.52-6.59-2.52-9.1-0.01c-2.52,2.51-2.52,6.59-0.01,9.1l29.75,29.81L24.86,93.77c-2.51,2.52-2.51,6.59,0.01,9.1
		c1.26,1.25,2.9,1.88,4.55,1.88c1.65,0,3.3-0.63,4.56-1.89l34.28-34.35C68.33,68.44,68.39,68.35,68.47,68.28z"/>
</g>
</svg>
