<?xml version="1.0" encoding="utf-8"?>
<!-- Generator: Adobe Illustrator 24.1.2, SVG Export Plug-In . SVG Version: 6.00 Build 0)  -->
<svg version="1.1" id="Layer_1" xmlns="http://www.w3.org/2000/svg" xmlns:xlink="http://www.w3.org/1999/xlink" x="0px" y="0px"
	 viewBox="0 0 125 125" style="enable-background:new 0 0 125 125;" xml:space="preserve">
<path d="M62.5,12.5c-27.61,0-50,22.39-50,50c0,27.61,22.39,50,50,50s50-22.39,50-50C112.5,34.89,90.11,12.5,62.5,12.5z M70.5,87.42
	c0,4.42-3.58,6.5-8,6.5s-8-2.08-8-6.5V61.33c0-4.42,3.58-8.03,8-8.03s8,3.61,8,8.03V87.42z M62.5,49.49c-4.42,0-8-3.58-8-8
	s3.58-8,8-8s8,3.58,8,8S66.92,49.49,62.5,49.49z"/>
</svg>
